<svg id="svg10" xmlns="http://www.w3.org/2000/svg" viewBox="0 0 1751.6 328"><style>.st0{fill:#fff}</style><path id="path20" class="st0" d="M611.2 232.9c-6.7-1.9-12.2-5.2-17.8-10.7-13.4-13.3-15.9-34.7-6.1-53.3 5.1-9.8 13.9-17.2 26.7-22.5 3.4-1.4 15.7-5.3 27.4-8.6s21.9-6.3 22.7-6.5c1.2-.4 1.4-1.6 1.4-9.9 0-11.6-1.1-18.6-3.8-24.7-2.5-5.5-5-8.1-10.4-10.6-3.4-1.5-5.5-1.8-12.6-1.8-9.2 0-13.4 1.3-19.3 5.7l-2.7 2.1 3.5 2.2c7.2 4.6 10.4 10.1 10.4 18 0 5.4-1.3 9.1-4.5 12.9-10 11.7-28.8 9-35.8-5.2-6.2-12.7-1.9-29.7 10.3-40.4 15.2-13.4 46-19.4 67.4-13.1 12.3 3.6 22.9 12.2 28 22.5 5.7 11.7 5.6 10.3 6.1 65.2.5 53.5.5 53.5 4.8 54.6 3.3.8 6.1-.7 7.2-3.8.6-1.8 1-8.6 1-18.5v-15.6h14.6v15.2c0 16.8-1 23.8-4.5 30.8-2.9 6-8.4 11.3-14.8 14.3-5.1 2.4-6 2.6-14.4 2.6-10.8 0-15.4-1.7-21-7.7-4.3-4.6-6.2-8.2-8.6-16.1l-1.8-5.9-4.4 6.5c-7.7 11.3-15.7 18.2-24.5 21.5-6.1 2-18.3 2.5-24.5.8zm35.6-28c4.8-3.1 9.1-8.7 12.7-16.8 4.4-9.7 6.1-17.7 6.1-29.9 0-5.7-.1-10.4-.3-10.4-1.4 0-20.9 7.3-26.2 9.7-13.2 6.2-16.7 11.7-17.2 27.1-.3 9.1-.2 9.8 1.8 14 4.5 9.4 14.2 12 23.1 6.3zm697.2 28.3c-22.7-3.3-43.5-20.1-53.4-43.2-9-20.8-10.7-43.5-5.1-65.8 4.5-17.8 11-30.1 21.5-40.5 17.2-17 39.5-22.9 64.3-17 32.2 7.6 54.5 40.7 54.4 80.7 0 47.3-24.7 81.1-62.7 85.8-7.8 1-12.1 1-19 0zm22.2-26.3c8.3-4.5 13.9-12.6 17.3-25.2 1.7-6.1 1.8-8.1 1.8-33.3s-.1-27.2-1.8-33.3c-3.6-13.1-8.4-19.9-17-24.1-4.8-2.4-6.1-2.6-12.1-2.6-5.9 0-7.4.4-12.1 2.6-6.3 3.1-10.2 7.4-13.9 15.1-5.3 11.1-5.6 13.3-5.6 43.1 0 23 .2 27.6 1.4 32.4 3.3 12.7 9.6 21.8 18 25.8 4.5 2.2 5.5 2.3 12.2 2.1 6.3-.2 8.1-.6 11.8-2.6zm136.9 26.1c-22.6-4.3-39.6-17.4-50.2-38.6-6.9-13.8-10.2-28.3-10.2-45.3 0-11.9 1.6-21.4 5.3-32.7 7.6-22.7 18.4-36 36.5-44.8 11.5-5.6 16.6-6.8 28.9-6.8 31 .1 53.8 16.3 66.1 47.1 4.4 11 6.3 21.6 6.3 35.5 0 38.4-15.5 67.8-42.5 80.4-11.3 5.1-28.5 7.4-40.2 5.2zm22.9-25.9c8.5-4.4 15.1-14.1 18.1-26.6 2.1-9.1 2.1-55.2 0-64.3-3.8-16.3-11.8-25.3-24.5-27.7-5.4-1-12.9.1-17.8 2.6-7.5 3.8-14.3 14.2-17.4 26.3-2.1 8.4-2.2 54 0 63 3.5 14.7 10.5 24.3 20.8 28.2 4.9 1.9 15.9 1 20.8-1.5zm-731.4 24.5c-34.4-8.4-55.9-46-51.9-90.5 3.1-34.3 17.3-59 40.4-70.4 9.8-4.8 15.3-6 27.6-6.1 11.6 0 17.3 1.3 26.4 6.2 21.7 11.5 33.9 36.8 27.5 57.3-1.4 4.6-2.5 6.3-6.3 10.1-6.9 6.9-14.1 8.3-21.8 4.5-7.3-3.6-11.6-11.5-11.6-21.3 0-8.8 4-15.5 11.4-19.3 2.1-1.1 2.2-1.4 1.4-3.6-1.4-3.9-7.7-10.3-12.6-12.7-3.8-1.9-5.7-2.2-11.2-2.3-6.1 0-7.2.2-12.2 2.8-9.2 4.7-13.9 12.6-17.5 29-2.5 11.5-3.2 43.1-1.3 56.2 3.1 21.2 10.7 32.9 23.4 36 6.3 1.6 17.3.6 22.2-1.9 9.2-4.7 14.9-14.2 17.7-29.6l1-5.6 10.3-.2 10.3-.2v3.1c0 4.9-2.8 17.1-5.5 23.9-8.9 22.7-29.3 36.6-53.9 36.4-4.4-.2-9.9-.8-13.8-1.8zm849.7-.3c-10-2.8-20.1-11.1-26.2-21.6-10.8-18.4-15.7-48.1-12.8-77.3 2.5-25.4 9.4-43.4 21.1-55.2 9.2-9.3 17.9-12.7 30.6-11.9 14.4.9 23.1 7.9 34.4 27.4l2.6 4.5-.2-29.3-.2-29.3-2-3.6c-3.6-6.4-11.1-8.9-26.6-8.9h-6.7V15.4c0-7.9.3-10.6 1-10.6.6 0 16.7-.9 35.8-1.8l34.8-1.8v96.2c0 79.6.2 96.6 1.1 98.8 2.3 5.3 7.3 8.2 15.8 9.2l5 .6v21.8h-2.6c-1.5 0-14.4.9-28.9 1.9l-26.2 1.8v-39l-2.7 7.3c-6.7 18.2-14.5 27.5-26.4 31.3-6.2 1.6-15 1.8-20.7.2zm29.1-26.1c7.4-3.7 13.4-13.4 16.9-27 4.1-16 4.4-47.2.8-61.6-3.5-13.4-11.6-24.3-20.2-26.8-4.9-1.4-6.5-1.5-10.6-.4-7.1 2-12.3 10.1-15 23.1-1.3 6.2-1.5 11.5-1.5 35.8 0 29.6.4 34.7 3.7 44.8 1.8 5.6 6.3 11.3 10 13 4.4 1.9 11.1 1.5 15.9-.9zM1092 166.4c-10.7-35.4-19.9-65.4-20.5-66.6-1.5-3-5-4.7-10-4.7h-4.1V70.7h67.4v24.4h-3.5c-4.4 0-9.1 1.3-10.4 2.9-.6.7-1 2.4-.9 3.8.2 3.8 23.5 80.9 24.1 79.4.3-.7 6.1-17.3 13-36.9l12.5-35.7-1.6-4.4c-.9-2.4-2.5-5.4-3.5-6.6-1.7-2-2.6-2.2-8.7-2.6l-6.8-.4V71.1h72.4v23.6l-6.3.5c-8.3.7-10.4 2-10.4 6.7 0 2.3 4.1 16.7 11.5 40.4 6.3 20.3 11.7 37.3 12 37.9.7 1.4 21.8-66.5 22.5-72.2.3-2.9.1-5.1-.6-6.4-1.6-3-6-5.6-10.5-6.2l-4-.5.2-11.9.2-11.9h52.8v23.6l-3.1.6c-5.1 1.1-9.4 3.7-11.7 7.3-1.5 2.2-8.6 23.6-21.8 65.6l-19.6 62.3h-26l-13.8-44.5c-7.6-24.5-14-44.5-14.3-44.5s-7.6 20.1-16.2 44.7l-15.7 44.7h-25.4l-19.2-64.5zm-819 47.4V200h7.6c12.9 0 20.5-3.5 24.7-11.6l2.3-4.3.2-68.3c.2-52.4 0-69.1-.8-71.9-1.3-4.6-7.1-10.6-11.7-12.1-1.8-.6-7.5-1.3-12.8-1.5l-9.6-.5V3.2l70.1.3c69.1.3 70.2.3 76.8 2.1 13.2 3.5 22.4 8.4 30.6 16.3C461.1 32 465.9 43.2 466 58.1c.1 11.3-1.8 18-7.7 26.8-7 10.5-16.8 17.6-31.6 22.7L417 111l8.8 2.7c4.8 1.5 11.2 4 14.2 5.7 10.6 5.8 20.6 16.1 25.7 26.5 4.2 8.6 5.6 14.6 5.6 23.7 0 25.7-18.8 47.7-47.6 55.8-6.5 1.8-6.8 1.8-78.6 2.1l-72.1.3v-14zm124.5-14.7c17.3-3.7 25.3-16.5 23.9-38.2-1.1-16.9-7.2-27.6-18.8-32.9-6.5-3-11.5-3.6-30.2-3.6H355V200h19.1c11.1 0 20.9-.4 23.4-.9zm.1-103.6c8.1-2.7 14.8-11.6 16.9-22.1 1.3-6.4.7-21.4-1-26.1-2.8-7.6-7.6-12.3-15.7-15.3-3.3-1.2-7.5-1.5-23.3-1.8l-19.3-.3v66.8h19.4c15.3 0 20-.2 23-1.2zM486 216.7v-10.9l5.2-.5c6.4-.6 12.1-3.2 14.5-6.5l1.8-2.5.2-78.4c.1-43.1 0-79.6-.2-81.1-1.1-6-7.3-10.2-16.5-11.2l-5-.6V4.3l14.8-.5c8.2-.3 21.2-1.2 29.1-2.2 7.8-.9 14.3-1.7 14.4-1.7s.2 44 .2 97.8c0 93.9.1 97.9 1.5 100.6 2 3.8 7.2 6.4 14.1 7l5.5.5v21.8H486v-10.9zm389.5.1l.2-10.8 5.6-.6c9.2-.9 14.4-3.7 16.8-9.1 1.4-3.2 1.5-7 1.5-80.4 0-86.5.4-80.9-6-84.6-3.4-2-10.7-3.7-15.7-3.7h-2.7l.2-10.8.2-10.8 19.5-.5c15.3-.4 21.5-.9 28.9-2.3 5.1-1 9.9-1.9 10.6-1.9 1.1-.1 1.3 8.7 1.6 73.5l.4 73.6 19.9-20.5c10.9-11.3 20.3-21.4 20.9-22.4 1.6-2.8 1.3-6.9-.5-8.8-1.4-1.4-2.7-1.6-11-1.6h-9.3V70.7h83.8v24.2l-7.9.3c-7 .3-8.5.6-12.8 3-8.1 4.3-18.1 12.4-29 23.5l-10.3 10.4 19.8 31.7c10.9 17.4 21.2 33.3 22.8 35.2 3.8 4.5 8.3 6.6 14.3 6.6h4.7v22h-78.8v-22h6.7c10.3 0 12.4-2.5 8.6-10-2.9-5.6-23.6-38-24.4-38-.4 0-4.5 3.7-9.2 8.2l-8.5 8.2v11.7c0 16 1.4 18.3 12 19.6l4.7.6.2 10.8.2 10.8h-78.2l.2-10.7z"/><g id="text29"><path id="path36" class="st0" d="M190.1 228H35.5l1.5-6.2c20.1-4.3 33.4-8.4 39.9-12.6 9.8-6.2 17.9-15.4 24.1-27.5 6.3-12.2 9.5-25 9.5-38.5 0-1.9-.1-4.7-.2-8.4-7.4 15.1-16.5 26.1-27.2 33-10.6 6.9-21.4 10.4-32.4 10.4-14.1 0-26.1-4.9-35.9-14.8S0 141.5 0 127.2c0-14.1 4.5-25.9 13.5-35.5 9-9.7 19.2-14.6 30.6-14.6 7.3 0 17.2 3.1 29.7 9.3-5.1-8.5-8.4-14.9-10-19.1-1.5-4.4-2.2-9.1-2.2-14 0-13.9 4.8-25.6 14.4-35.2 9.6-9.6 21.6-14.4 35.9-14.4S138.3 8.4 148 18c9.8 9.6 14.8 21 14.8 34.3 0 10.8-4.2 22.2-12.6 34.1 10.2-4.9 16.3-7.6 18.4-8.2 3.3-1 7-1.5 11.1-1.5 12.2 0 22.7 4.8 31.5 14.4 9 9.5 13.5 21.3 13.5 35.4 0 14.6-4.9 26.9-14.8 36.8-9.7 9.8-21.4 14.8-35.2 14.8-7.7 0-15.6-1.8-23.7-5.5-8-3.8-15-8.8-21-14.9-4.3-4.5-9.5-12.1-15.9-22.8.5 19.3 3.4 34.6 8.8 45.9 5.5 11.2 13.8 20.5 25 27.9 7.5 5 21.1 9.4 40.7 13.1l1.5 6.2z"/></g><g id="text849"><path id="path70" class="st0" d="M298 261.2v65.6h-4.8v-65.6H273v-4.4h45.2v4.4H298z"/><path id="path72" class="st0" d="M363.2 326.8v-30c0-5.9-1.1-10.3-3.2-13-2.1-2.8-5.5-4.2-10.1-4.2-4.3 0-8.1 1.7-11.3 5-3.3 3.4-4.9 8.2-4.9 14.4v27.7h-4.5v-74h4.5v33h.2c3.9-6.8 9.7-10.2 17.2-10.2 5.4 0 9.5 1.7 12.4 5.2 2.8 3.5 4.2 8.5 4.2 15v31l-4.5.1z"/><path id="path74" class="st0" d="M383.8 302c0 6.9 1.6 12.2 4.7 16.1 3.2 3.9 7.6 5.8 13.1 5.8 5.6 0 11.1-2.1 16.4-6.2v4.8c-5.2 3.7-11 5.5-17.3 5.5-6.4 0-11.7-2.3-15.6-6.9-4-4.6-6-11.1-6-19.6 0-7.3 2.1-13.4 6.2-18.4 4.2-5 9.6-7.5 16.2-7.5 6.2 0 11 2.2 14.3 6.5 3.3 4.4 5 10.3 5 17.9v2h-37zm32.3-4.1c-.2-5.8-1.6-10.2-4.2-13.4s-6.1-4.8-10.6-4.8c-4.7 0-8.6 1.6-11.7 4.7-3.1 3.1-4.9 7.6-5.7 13.5h32.2z"/><path id="path76" class="st0" d="M458 324.6v-5.4c1.7 1.5 3.7 2.6 6.2 3.5 2.4.8 4.5 1.3 6.2 1.3 7.8 0 11.8-3.2 11.8-9.6 0-2.2-.9-4.1-2.6-5.7-1.7-1.6-4.5-3.2-8.4-4.8-4.8-2.1-8.2-4.2-10.1-6.4-1.9-2.2-2.9-5-2.9-8.2 0-4.1 1.5-7.4 4.6-9.9 3.1-2.5 7-3.8 11.5-3.8 4.3 0 8 .9 11 2.6v5.1c-3.7-2.4-7.6-3.6-11.5-3.6-3.3 0-5.9.9-8 2.6-2 1.7-3 3.9-3 6.6 0 2.4.6 4.3 1.9 5.8 1.3 1.5 4.1 3.2 8.4 5.1 5.2 2.3 8.8 4.5 10.7 6.5 2 2 2.9 4.6 2.9 8 0 4-1.5 7.3-4.5 9.9-3 2.6-7.1 3.9-12.3 3.9-4.6-.1-8.6-1.2-11.9-3.5z"/><path id="path78" class="st0" d="M500.6 302c0 6.9 1.6 12.2 4.7 16.1 3.2 3.9 7.6 5.8 13.1 5.8 5.6 0 11.1-2.1 16.4-6.2v4.8c-5.2 3.7-11 5.5-17.3 5.5-6.4 0-11.7-2.3-15.6-6.9-4-4.6-6-11.1-6-19.6 0-7.3 2.1-13.4 6.2-18.4 4.2-5 9.6-7.5 16.2-7.5 6.2 0 11 2.2 14.3 6.5 3.3 4.4 5 10.3 5 17.9v2h-37zm32.3-4.1c-.2-5.8-1.6-10.2-4.2-13.4s-6.1-4.8-10.6-4.8c-4.7 0-8.6 1.6-11.7 4.7-3.1 3.1-4.9 7.6-5.7 13.5h32.2z"/><path id="path80" class="st0" d="M580 326.8v-10h-.2c-1.6 3.4-3.9 6.2-7 8.2-3 2-6.4 3-10.1 3-4.8 0-8.5-1.3-11.3-4-2.8-2.7-4.2-6-4.2-10.1 0-8.7 5.8-14 17.3-15.8l15.4-2.3c0-10.7-4-16.1-12.1-16.1-5.5 0-10.9 2.2-16.1 6.6v-5.4c1.9-1.5 4.4-2.7 7.5-3.8 3.2-1 6.2-1.6 9-1.6 5.1 0 9.1 1.6 11.9 4.8 2.8 3.2 4.2 7.8 4.2 13.9v32.5l-4.3.1zm-13.8-24.9c-5.2.7-8.9 2-11 3.7-2.1 1.7-3.2 4.4-3.2 8.2 0 3 1 5.4 2.9 7.3 2 1.9 4.7 2.9 8.3 2.9 4.8 0 8.8-1.8 12-5.3 3.2-3.6 4.8-8.2 4.8-13.8V300l-13.8 1.9z"/><path id="path82" class="st0" d="M623.1 281.5c-1.5-1.1-3.3-1.6-5.3-1.6-3.9 0-7.2 2-9.9 6.1s-4 9.8-4 17.3v23.5h-4.4v-50h4.4v11.1h.2c1.1-3.8 2.9-6.8 5.4-8.9 2.5-2.1 5.3-3.2 8.6-3.2 1.9 0 3.5.3 5 .9v4.8z"/><path id="path84" class="st0" d="M662.9 324.6c-3.7 2.3-8.1 3.4-13.3 3.4-6.8 0-12.3-2.3-16.5-7-4.2-4.7-6.2-10.8-6.2-18.4 0-7.9 2.3-14.4 7-19.5s10.7-7.6 18.1-7.6c3.8 0 7.5.8 11.1 2.3v5.1c-3.6-2.2-7.5-3.3-11.8-3.3-5.9 0-10.6 2.1-14.3 6.3-3.6 4.2-5.5 9.7-5.5 16.4 0 6.5 1.7 11.7 5 15.6 3.4 3.9 7.8 5.9 13.2 5.9 5 0 9.4-1.3 13.1-4v4.8z"/><path id="path86" class="st0" d="M708.9 326.8v-30c0-5.9-1.1-10.3-3.2-13-2.1-2.8-5.5-4.2-10.1-4.2-4.3 0-8.1 1.7-11.3 5-3.3 3.4-4.9 8.2-4.9 14.4v27.7h-4.5v-74h4.5v33h.2c3.9-6.8 9.7-10.2 17.2-10.2 5.4 0 9.5 1.7 12.4 5.2 2.8 3.5 4.2 8.5 4.2 15v31l-4.5.1z"/><path id="path88" class="st0" d="M777.6 257.5c-1.2-.9-3-1.4-5.5-1.4-6.2 0-9.2 4.1-9.2 12.4v8.3h13.2v4.1h-13.2v45.9h-4.5v-45.9h-9v-4.1h9v-8.7c0-5.3 1.3-9.3 4-12 2.7-2.7 6-4.1 10-4.1 2.1 0 3.9.3 5.3.9v4.6z"/><path id="path90" class="st0" d="M803.4 328c-7.3 0-13.1-2.4-17.3-7.2-4.2-4.8-6.3-11.1-6.3-18.7 0-8.3 2.2-14.8 6.6-19.5 4.5-4.7 10.3-7 17.6-7 7.1 0 12.8 2.3 16.9 7 4.1 4.7 6.2 11.1 6.2 19.3 0 7.8-2.1 14.1-6.3 18.9-4.4 4.8-10.1 7.2-17.4 7.2zm.3-48.3c-5.9 0-10.6 2-14.1 6s-5.2 9.5-5.2 16.6c0 6.5 1.7 11.8 5.1 15.8 3.4 4 8.1 6 14 6 6 0 10.7-2 13.9-5.9s4.9-9.3 4.9-16.3c0-7.1-1.6-12.6-4.9-16.4-3.2-3.9-7.8-5.8-13.7-5.8z"/><path id="path92" class="st0" d="M862.9 281.5c-1.5-1.1-3.3-1.6-5.3-1.6-3.9 0-7.2 2-9.9 6.1s-4 9.8-4 17.3v23.5h-4.4v-50h4.4v11.1h.2c1.1-3.8 2.9-6.8 5.4-8.9 2.5-2.1 5.3-3.2 8.6-3.2 1.9 0 3.5.3 5 .9v4.8z"/><path id="path94" class="st0" d="M900.8 302c0 6.9 1.6 12.2 4.7 16.1 3.2 3.9 7.6 5.8 13.1 5.8 5.6 0 11.1-2.1 16.4-6.2v4.8c-5.2 3.7-11 5.5-17.3 5.5-6.4 0-11.7-2.3-15.6-6.9-4-4.6-6-11.1-6-19.6 0-7.3 2.1-13.4 6.2-18.4 4.2-5 9.6-7.5 16.2-7.5 6.2 0 11 2.2 14.3 6.5 3.3 4.4 5 10.3 5 17.9v2h-37zm32.3-4.1c-.2-5.8-1.6-10.2-4.2-13.4-2.6-3.2-6.1-4.8-10.6-4.8-4.7 0-8.6 1.6-11.7 4.7-3.1 3.1-4.9 7.6-5.7 13.5h32.2z"/><path id="path96" class="st0" d="M965.8 302.3l16.3 24.5h-5.7l-13.2-21.1h-.2l-1.8 2.8c-.2.4-.5.8-.8 1.3l-11 17h-5.5l16.7-24.4-16.4-25.6h5.3l11.1 17.9c1.4 2.3 2.3 3.7 2.6 4.3h.2l2.5-4.1 11.6-18.1h5.3l-17 25.5z"/><path id="path98" class="st0" d="M1024.8 324.6c-3.7 2.3-8.1 3.4-13.3 3.4-6.8 0-12.3-2.3-16.5-7-4.2-4.7-6.2-10.8-6.2-18.4 0-7.9 2.3-14.4 7-19.5s10.7-7.6 18.1-7.6c3.8 0 7.5.8 11.1 2.3v5.1c-3.6-2.2-7.5-3.3-11.8-3.3-5.9 0-10.6 2.1-14.3 6.3-3.6 4.2-5.5 9.7-5.5 16.4 0 6.5 1.7 11.7 5 15.6 3.4 3.9 7.8 5.9 13.2 5.9 5 0 9.4-1.3 13.1-4v4.8z"/><path id="path100" class="st0" d="M1037.9 302c0 6.9 1.6 12.2 4.7 16.1 3.2 3.9 7.6 5.8 13.1 5.8 5.6 0 11.1-2.1 16.4-6.2v4.8c-5.2 3.7-11 5.5-17.3 5.5-6.4 0-11.7-2.3-15.6-6.9-4-4.6-6-11.1-6-19.6 0-7.3 2.1-13.4 6.2-18.4 4.2-5 9.6-7.5 16.2-7.5 6.2 0 11 2.2 14.3 6.5 3.3 4.4 5 10.3 5 17.9v2h-37zm32.3-4.1c-.2-5.8-1.6-10.2-4.2-13.4-2.6-3.2-6.1-4.8-10.6-4.8-4.7 0-8.6 1.6-11.7 4.7-3.1 3.1-4.9 7.6-5.7 13.5h32.2z"/><path id="path102" class="st0" d="M1087.4 326.8v-74h4.5v74h-4.5z"/><path id="path104" class="st0" d="M1107.9 326.8v-74h4.5v74h-4.5z"/><path id="path106" class="st0" d="M1129.5 302c0 6.9 1.6 12.2 4.7 16.1 3.2 3.9 7.6 5.8 13.1 5.8 5.6 0 11.1-2.1 16.4-6.2v4.8c-5.2 3.7-11 5.5-17.3 5.5-6.4 0-11.7-2.3-15.6-6.9-4-4.6-6-11.1-6-19.6 0-7.3 2.1-13.4 6.2-18.4 4.2-5 9.6-7.5 16.2-7.5 6.2 0 11 2.2 14.3 6.5 3.3 4.4 5 10.3 5 17.9v2h-37zm32.3-4.1c-.2-5.8-1.6-10.2-4.2-13.4s-6.1-4.8-10.6-4.8c-4.7 0-8.6 1.6-11.7 4.7-3.1 3.1-4.9 7.6-5.7 13.5h32.2z"/><path id="path108" class="st0" d="M1213 326.8v-29.1c0-12-4.3-18-13-18-4.8 0-8.8 1.8-11.9 5.3-3.1 3.5-4.6 7.9-4.6 13.1v28.7h-4.5v-50h4.5v9.1h.2c3.6-6.9 9.3-10.3 17.1-10.3 5.4 0 9.5 1.8 12.4 5.4 2.9 3.6 4.3 8.7 4.3 15.4v30.4h-4.5z"/><path id="path110" class="st0" d="M1264.9 324.6c-3.7 2.3-8.1 3.4-13.3 3.4-6.8 0-12.3-2.3-16.5-7-4.2-4.7-6.2-10.8-6.2-18.4 0-7.9 2.3-14.4 7-19.5s10.7-7.6 18.1-7.6c3.8 0 7.5.8 11.1 2.3v5.1c-3.6-2.2-7.5-3.3-11.8-3.3-5.9 0-10.6 2.1-14.3 6.3-3.6 4.2-5.5 9.7-5.5 16.4 0 6.5 1.7 11.7 5 15.6 3.4 3.9 7.8 5.9 13.2 5.9 5 0 9.4-1.3 13.1-4v4.8z"/><path id="path112" class="st0" d="M1277.9 302c0 6.9 1.6 12.2 4.7 16.1 3.2 3.9 7.6 5.8 13.1 5.8 5.6 0 11.1-2.1 16.4-6.2v4.8c-5.2 3.7-11 5.5-17.3 5.5-6.4 0-11.7-2.3-15.6-6.9-4-4.6-6-11.1-6-19.6 0-7.3 2.1-13.4 6.2-18.4 4.2-5 9.6-7.5 16.2-7.5 6.2 0 11 2.2 14.3 6.5 3.3 4.4 5 10.3 5 17.9v2h-37zm32.3-4.1c-.2-5.8-1.6-10.2-4.2-13.4-2.6-3.2-6.1-4.8-10.6-4.8-4.7 0-8.6 1.6-11.7 4.7-3.1 3.1-4.9 7.6-5.7 13.5h32.2z"/></g></svg>